<svg width="46" height="47" viewBox="0 0 46 47" fill="none" xmlns="http://www.w3.org/2000/svg">
<rect x="0.74707" y="1.38782" width="44.67" height="44.6684" rx="16.5" stroke="#E2E2E2"/>
<path d="M31.582 23.722C31.582 24.0979 31.4379 24.4612 31.1685 24.7243C30.9053 24.9936 30.5419 25.1439 30.1659 25.1439H24.5013V30.8064C24.5013 31.1823 24.3509 31.5456 24.0815 31.8086C23.8183 32.0717 23.4611 32.222 23.0852 32.222C22.7092 32.222 22.3458 32.0717 22.0826 31.8086C21.8131 31.5456 21.6628 31.1823 21.6628 30.8064V25.1439H15.9982C15.6222 25.1439 15.2588 24.9936 14.9956 24.7243C14.7324 24.4612 14.582 24.0979 14.582 23.722C14.582 23.3462 14.7324 22.9892 14.9956 22.7198C15.2588 22.4568 15.6222 22.3064 15.9982 22.3064H21.6628V16.6439C21.6628 16.2681 21.8131 15.9048 22.0826 15.6417C22.3458 15.3724 22.7092 15.222 23.0852 15.222C23.4611 15.222 23.8183 15.3724 24.0815 15.6417C24.3509 15.9048 24.5013 16.2681 24.5013 16.6439V22.3064H30.1659C30.5419 22.3064 30.9053 22.4568 31.1685 22.7198C31.4379 22.9892 31.582 23.3462 31.582 23.722Z" fill="#53B175"/>
</svg>
