<svg width="47" height="46" viewBox="0 0 47 46" fill="none" xmlns="http://www.w3.org/2000/svg">
<rect x="1.18164" y="0.803467" width="44.67" height="44.6684" rx="16.5" stroke="#F0F0F0"/>
<path d="M32.0166 23.1377C32.0166 23.5135 31.8725 23.8768 31.603 24.1399C31.3399 24.4092 30.9764 24.5596 30.6005 24.5596H24.9359H22.0973H16.4327C16.0568 24.5596 15.6933 24.4092 15.4302 24.1399C15.167 23.8768 15.0166 23.5135 15.0166 23.1377C15.0166 22.7618 15.167 22.4048 15.4302 22.1355C15.6933 21.8724 16.0568 21.722 16.4327 21.722H22.0973H24.9359H30.6005C30.9764 21.722 31.3399 21.8724 31.603 22.1355C31.8725 22.4048 32.0166 22.7618 32.0166 23.1377Z" fill="#B3B3B3"/>
</svg>
