<svg width="277" height="401" viewBox="0 0 277 401" fill="none" xmlns="http://www.w3.org/2000/svg">
<g filter="url(#filter0_d_4_70)">
<path fill-rule="evenodd" clip-rule="evenodd" d="M5 79L137 1L272.5 79V237.5L5 392V293L188 188V130C156.5 130 127 113.5 110.5 85L86.5 98.5V150.5L5 196.5V79ZM173 348V391.5C206 392.167 272 393.1 272 391.5V290L173 348Z" fill="#B4846C"/>
<path d="M137 1L137.249 0.566668L136.997 0.421178L136.746 0.569537L137 1ZM5 79L4.74564 78.5695L4.5 78.7147V79H5ZM272.5 79H273V78.7109L272.749 78.5667L272.5 79ZM272.5 237.5L272.75 237.933L273 237.789V237.5H272.5ZM5 392H4.5V392.866L5.25007 392.433L5 392ZM5 293L4.75117 292.566L4.5 292.71V293H5ZM188 188L188.249 188.434L188.5 188.29V188H188ZM188 130H188.5V129.5H188V130ZM110.5 85L110.933 84.7495L110.685 84.3221L110.255 84.5642L110.5 85ZM86.5 98.5L86.2549 98.0642L86 98.2076V98.5H86.5ZM86.5 150.5L86.7458 150.935L87 150.792V150.5H86.5ZM5 196.5H4.5V197.356L5.24576 196.935L5 196.5ZM173 391.5H172.5V391.99L172.99 392L173 391.5ZM173 348L172.747 347.569L172.5 347.713V348H173ZM272 290H272.5V289.128L271.747 289.569L272 290ZM136.746 0.569537L4.74564 78.5695L5.25436 79.4305L137.254 1.43046L136.746 0.569537ZM272.749 78.5667L137.249 0.566668L136.751 1.43333L272.251 79.4333L272.749 78.5667ZM273 237.5V79H272V237.5H273ZM5.25007 392.433L272.75 237.933L272.25 237.067L4.74993 391.567L5.25007 392.433ZM4.5 293V392H5.5V293H4.5ZM187.751 187.566L4.75117 292.566L5.24883 293.434L188.249 188.434L187.751 187.566ZM187.5 130V188H188.5V130H187.5ZM110.067 85.2505C126.657 113.906 156.323 130.5 188 130.5V129.5C156.677 129.5 127.343 113.094 110.933 84.7495L110.067 85.2505ZM86.7451 98.9358L110.745 85.4358L110.255 84.5642L86.2549 98.0642L86.7451 98.9358ZM87 150.5V98.5H86V150.5H87ZM5.24576 196.935L86.7458 150.935L86.2542 150.065L4.75424 196.065L5.24576 196.935ZM4.5 79V196.5H5.5V79H4.5ZM173.5 391.5V348H172.5V391.5H173.5ZM271.5 391.5C271.5 391.291 271.636 391.185 271.653 391.172C271.679 391.153 271.685 391.156 271.641 391.172C271.559 391.202 271.407 391.239 271.17 391.278C270.702 391.355 269.997 391.425 269.066 391.488C267.209 391.613 264.512 391.705 261.162 391.769C254.466 391.896 245.189 391.908 234.878 391.85C214.256 391.733 189.509 391.333 173.01 391L172.99 392C189.491 392.333 214.244 392.733 234.872 392.85C245.186 392.908 254.472 392.896 261.181 392.769C264.535 392.705 267.252 392.613 269.133 392.486C270.072 392.422 270.816 392.349 271.332 392.264C271.586 392.223 271.809 392.174 271.978 392.113C272.06 392.084 272.161 392.041 272.251 391.974C272.332 391.914 272.5 391.759 272.5 391.5H271.5ZM271.5 290V391.5H272.5V290H271.5ZM173.253 348.431L272.253 290.431L271.747 289.569L172.747 347.569L173.253 348.431Z" fill="#B4846C"/>
</g>
<defs>
<filter id="filter0_d_4_70" x="0.5" y="0.421143" width="276.5" height="400.462" filterUnits="userSpaceOnUse" color-interpolation-filters="sRGB">
<feFlood flood-opacity="0" result="BackgroundImageFix"/>
<feColorMatrix in="SourceAlpha" type="matrix" values="0 0 0 0 0 0 0 0 0 0 0 0 0 0 0 0 0 0 127 0" result="hardAlpha"/>
<feOffset dy="4"/>
<feGaussianBlur stdDeviation="2"/>
<feComposite in2="hardAlpha" operator="out"/>
<feColorMatrix type="matrix" values="0 0 0 0 0 0 0 0 0 0 0 0 0 0 0 0 0 0 0.25 0"/>
<feBlend mode="normal" in2="BackgroundImageFix" result="effect1_dropShadow_4_70"/>
<feBlend mode="normal" in="SourceGraphic" in2="effect1_dropShadow_4_70" result="shape"/>
</filter>
</defs>
</svg>
